<?xml version="1.0" encoding="utf-8"?><!DOCTYPE svg PUBLIC "-//W3C//DTD SVG 1.1//EN" "http://www.w3.org/Graphics/SVG/1.1/DTD/svg11.dtd"><svg id="" width="128" height="128" style="width:128px;height:128px;" version="1.1" xmlns="http://www.w3.org/2000/svg" viewBox="0 0 2048 2048" enable-background="new 0 0 2048 2048" xml:space="preserve"><path fill="#FFFFFF" d="M313 1536 q-63 0 -120 -25.5 q-57 -25.5 -99.5 -68 q-42.5 -42.5 -68 -99.5 q-25.5 -57 -25.5 -120 l0 -910 q0 -63 25.5 -120 q25.5 -57 68 -99.5 q42.5 -42.5 99.5 -68 q57 -25.5 120 -25.5 l1422 0 q63 0 120 25.5 q57 25.5 99.5 68 q42.5 42.5 68 99.5 q25.5 57 25.5 120 l0 910 q0 63 -25.5 120 q-25.5 57 -68 99.5 q-42.5 42.5 -99.5 68 q-57 25.5 -120 25.5 l-1422 0 ZM1728 1408 q39 0 74 -15 q35 -15 61.5 -41.5 q26.5 -26.5 41.5 -61.5 q15 -35 15 -74 l0 -896 q0 -39 -15 -74 q-15 -35 -41.5 -61.5 q-26.5 -26.5 -61.5 -41.5 q-35 -15 -74 -15 l-1408 0 q-39 0 -74 15 q-35 15 -61.5 41.5 q-26.5 26.5 -41.5 61.5 q-15 35 -15 74 l0 896 q0 39 15 74 q15 35 41.5 61.5 q26.5 26.5 61.5 41.5 q35 15 74 15 l1408 0 ZM320 1024 q-26 0 -45 -19 q-19 -19 -19 -45 q0 -26 19 -45 q19 -19 45 -19 l896 0 q26 0 45 19 q19 19 19 45 q0 26 -19 45 q-19 19 -45 19 l-896 0 ZM1472 1024 q-26 0 -45 -19 q-19 -19 -19 -45 q0 -26 19 -45 q19 -19 45 -19 l256 0 q26 0 45 19 q19 19 19 45 q0 26 -19 45 q-19 19 -45 19 l-256 0 ZM320 1280 q-26 0 -45 -19 q-19 -19 -19 -45 q0 -26 19 -45 q19 -19 45 -19 l384 0 q26 0 45 19 q19 19 19 45 q0 26 -19 45 q-19 19 -45 19 l-384 0 ZM960 1280 q-26 0 -45 -19 q-19 -19 -19 -45 q0 -26 19 -45 q19 -19 45 -19 l768 0 q26 0 45 19 q19 19 19 45 q0 26 -19 45 q-19 19 -45 19 l-768 0 Z"/></svg>